<?xml version="1.0" encoding="UTF-8"?>
<svg width="270px" height="270px" viewBox="0 0 270 270" version="1.1" xmlns="http://www.w3.org/2000/svg" xmlns:xlink="http://www.w3.org/1999/xlink">
    <!-- Generator: Sketch 52 (66869) - http://www.bohemiancoding.com/sketch -->
    <title>Artboard Copy 6</title>
    <desc>Created with Sketch.</desc>
    <g id="Artboard-Copy-6" stroke="none" stroke-width="1" fill="none" fill-rule="evenodd">
        <g id="Group" fill-rule="nonzero">
            <rect id="Rectangle-5" stroke-opacity="0" stroke="#979797" stroke-width="3.5" x="1.75" y="1.75" width="266.5" height="266.5"></rect>
            <path d="M104.082222,216.862955 C110.812828,217.900938 118.473432,218.417778 127.430493,218.417778 L143.569507,218.417778 C165.637232,218.417778 179.749621,215.379476 192.463498,208.58002 C204.178311,202.31487 213.31487,193.178311 219.58002,181.463498 C226.379476,168.749621 229.417778,154.637232 229.417778,132.569507 L229.417778,50.5822222 L210.613781,50.5822222 C184.169849,51.825044 169.405342,55.3662073 154.042173,63.5825199 C138.264677,72.0204173 126.020417,84.2646768 117.58252,100.042173 C107.388421,119.103481 104.082222,137.970694 104.082222,181.27003 L104.082222,216.862955 Z M57.9177778,191.419449 L57.9177778,181.27003 C57.9177778,130.635905 62.6545044,104.859413 76.8741036,78.2710738 C82.305972,68.1143629 88.8511085,58.8541107 96.4296382,50.5822222 L41.5822222,50.5822222 L41.5822222,132.569507 C41.5822222,154.637232 44.6205238,168.749621 51.4199797,181.463498 C53.3236483,185.023049 55.4923321,188.344415 57.9177778,191.419449 Z" id="Combined-Shape" stroke="#B31839" stroke-width="19.1644444" fill="#B31839"></path>
        </g>
    </g>
</svg>